<svg width="360" height="120" viewBox="0 0 360 120" fill="none" xmlns="http://www.w3.org/2000/svg">
<rect x="2" y="2" width="356" height="116" rx="8" fill="#282828"/>
<rect x="2" y="2" width="356" height="116" rx="8" stroke="#7D7D7D" stroke-width="4"/>
<path d="M144.625 39H140.585V25.9091H144.804C146.074 25.9091 147.161 26.1712 148.064 26.6953C148.967 27.2152 149.66 27.9631 150.141 28.9389C150.623 29.9105 150.864 31.0739 150.864 32.429C150.864 33.7926 150.621 34.9666 150.135 35.951C149.649 36.9311 148.942 37.6854 148.013 38.2138C147.084 38.7379 145.955 39 144.625 39ZM142.17 37.5938H144.523C145.605 37.5938 146.502 37.3849 147.214 36.9673C147.925 36.5497 148.456 35.9553 148.805 35.1839C149.155 34.4126 149.33 33.4943 149.33 32.429C149.33 31.3722 149.157 30.4624 148.812 29.6996C148.467 28.9325 147.951 28.3445 147.265 27.9354C146.579 27.522 145.724 27.3153 144.702 27.3153H142.17V37.5938ZM157.847 39.2045C156.96 39.2045 156.183 38.9936 155.514 38.5717C154.849 38.1499 154.329 37.5597 153.954 36.8011C153.583 36.0426 153.398 35.1562 153.398 34.142C153.398 33.1193 153.583 32.2266 153.954 31.4638C154.329 30.701 154.849 30.1087 155.514 29.6868C156.183 29.2649 156.96 29.054 157.847 29.054C158.733 29.054 159.509 29.2649 160.174 29.6868C160.843 30.1087 161.362 30.701 161.733 31.4638C162.108 32.2266 162.296 33.1193 162.296 34.142C162.296 35.1562 162.108 36.0426 161.733 36.8011C161.362 37.5597 160.843 38.1499 160.174 38.5717C159.509 38.9936 158.733 39.2045 157.847 39.2045ZM157.847 37.8494C158.52 37.8494 159.074 37.6768 159.509 37.3317C159.943 36.9865 160.265 36.5327 160.474 35.9702C160.683 35.4077 160.787 34.7983 160.787 34.142C160.787 33.4858 160.683 32.8743 160.474 32.3075C160.265 31.7408 159.943 31.2827 159.509 30.9332C159.074 30.5838 158.52 30.4091 157.847 30.4091C157.174 30.4091 156.62 30.5838 156.185 30.9332C155.75 31.2827 155.428 31.7408 155.22 32.3075C155.011 32.8743 154.906 33.4858 154.906 34.142C154.906 34.7983 155.011 35.4077 155.22 35.9702C155.428 36.5327 155.75 36.9865 156.185 37.3317C156.62 37.6768 157.174 37.8494 157.847 37.8494ZM167.029 39L164.037 29.1818H165.623L167.745 36.6989H167.847L169.944 29.1818H171.554L173.625 36.6733H173.728L175.85 29.1818H177.435L174.444 39H172.961L170.813 31.4574H170.66L168.512 39H167.029ZM181.478 33.0938V39H179.969V29.1818H181.427V30.7159H181.555C181.785 30.2173 182.134 29.8168 182.603 29.5142C183.072 29.2074 183.677 29.054 184.418 29.054C185.083 29.054 185.665 29.1903 186.163 29.4631C186.662 29.7315 187.05 30.1406 187.327 30.6903C187.604 31.2358 187.742 31.9261 187.742 32.7614V39H186.234V32.8636C186.234 32.0923 186.033 31.4915 185.633 31.0611C185.232 30.6264 184.682 30.4091 183.984 30.4091C183.502 30.4091 183.072 30.5135 182.692 30.7223C182.317 30.9311 182.021 31.2358 181.804 31.6364C181.587 32.0369 181.478 32.5227 181.478 33.0938ZM192.547 25.9091V39H191.039V25.9091H192.547ZM199.839 39.2045C198.952 39.2045 198.175 38.9936 197.506 38.5717C196.841 38.1499 196.321 37.5597 195.946 36.8011C195.575 36.0426 195.39 35.1562 195.39 34.142C195.39 33.1193 195.575 32.2266 195.946 31.4638C196.321 30.701 196.841 30.1087 197.506 29.6868C198.175 29.2649 198.952 29.054 199.839 29.054C200.725 29.054 201.501 29.2649 202.166 29.6868C202.835 30.1087 203.354 30.701 203.725 31.4638C204.1 32.2266 204.288 33.1193 204.288 34.142C204.288 35.1562 204.1 36.0426 203.725 36.8011C203.354 37.5597 202.835 38.1499 202.166 38.5717C201.501 38.9936 200.725 39.2045 199.839 39.2045ZM199.839 37.8494C200.512 37.8494 201.066 37.6768 201.501 37.3317C201.935 36.9865 202.257 36.5327 202.466 35.9702C202.675 35.4077 202.779 34.7983 202.779 34.142C202.779 33.4858 202.675 32.8743 202.466 32.3075C202.257 31.7408 201.935 31.2827 201.501 30.9332C201.066 30.5838 200.512 30.4091 199.839 30.4091C199.166 30.4091 198.612 30.5838 198.177 30.9332C197.742 31.2827 197.421 31.7408 197.212 32.3075C197.003 32.8743 196.899 33.4858 196.899 34.142C196.899 34.7983 197.003 35.4077 197.212 35.9702C197.421 36.5327 197.742 36.9865 198.177 37.3317C198.612 37.6768 199.166 37.8494 199.839 37.8494ZM210.02 39.2301C209.397 39.2301 208.833 39.1129 208.326 38.8786C207.819 38.6399 207.416 38.2969 207.118 37.8494C206.819 37.3977 206.67 36.8523 206.67 36.2131C206.67 35.6506 206.781 35.1946 207.003 34.8452C207.224 34.4915 207.52 34.2145 207.891 34.0142C208.262 33.8139 208.671 33.6648 209.118 33.5668C209.57 33.4645 210.024 33.3835 210.48 33.3239C211.076 33.2472 211.56 33.1896 211.931 33.1513C212.306 33.1087 212.579 33.0384 212.749 32.9403C212.924 32.8423 213.011 32.6719 213.011 32.429V32.3778C213.011 31.7472 212.839 31.2571 212.493 30.9077C212.152 30.5582 211.635 30.3835 210.94 30.3835C210.22 30.3835 209.655 30.5412 209.246 30.8565C208.837 31.1719 208.549 31.5085 208.383 31.8665L206.951 31.3551C207.207 30.7585 207.548 30.294 207.974 29.9616C208.405 29.625 208.873 29.3906 209.38 29.2585C209.892 29.1222 210.395 29.054 210.889 29.054C211.204 29.054 211.567 29.0923 211.976 29.169C212.389 29.2415 212.787 29.3928 213.171 29.6229C213.559 29.853 213.88 30.2003 214.136 30.6648C214.392 31.1293 214.52 31.7514 214.52 32.5312V39H213.011V37.6705H212.934C212.832 37.8835 212.662 38.1115 212.423 38.3544C212.184 38.5973 211.867 38.804 211.471 38.9744C211.074 39.1449 210.591 39.2301 210.02 39.2301ZM210.25 37.875C210.846 37.875 211.349 37.7578 211.758 37.5234C212.172 37.2891 212.483 36.9865 212.692 36.6158C212.905 36.245 213.011 35.8551 213.011 35.446V34.0653C212.947 34.142 212.807 34.2124 212.589 34.2763C212.376 34.3359 212.129 34.3892 211.848 34.4361C211.571 34.4787 211.3 34.517 211.036 34.5511C210.776 34.581 210.565 34.6065 210.403 34.6278C210.011 34.679 209.645 34.7621 209.304 34.8771C208.967 34.9879 208.694 35.1562 208.486 35.3821C208.281 35.6037 208.179 35.9062 208.179 36.2898C208.179 36.8139 208.373 37.2102 208.76 37.4787C209.152 37.7429 209.649 37.875 210.25 37.875ZM221.52 39.2045C220.702 39.2045 219.98 38.9979 219.354 38.5845C218.727 38.1669 218.237 37.5788 217.883 36.8203C217.53 36.0575 217.353 35.1562 217.353 34.1165C217.353 33.0852 217.53 32.1903 217.883 31.4318C218.237 30.6733 218.729 30.0874 219.36 29.674C219.991 29.2607 220.719 29.054 221.546 29.054C222.185 29.054 222.69 29.1605 223.061 29.3736C223.436 29.5824 223.721 29.821 223.917 30.0895C224.118 30.3537 224.273 30.571 224.384 30.7415H224.512V25.9091H226.02V39H224.563V37.4915H224.384C224.273 37.6705 224.116 37.8963 223.911 38.169C223.706 38.4375 223.415 38.6783 223.035 38.8913C222.656 39.1001 222.151 39.2045 221.52 39.2045ZM221.725 37.8494C222.33 37.8494 222.841 37.6918 223.259 37.3764C223.677 37.0568 223.994 36.6158 224.211 36.0533C224.429 35.4865 224.537 34.8324 224.537 34.0909C224.537 33.358 224.431 32.7166 224.218 32.1669C224.005 31.6129 223.689 31.1825 223.272 30.8757C222.854 30.5646 222.339 30.4091 221.725 30.4091C221.086 30.4091 220.553 30.5732 220.127 30.9013C219.705 31.2251 219.388 31.6662 219.175 32.2244C218.966 32.7784 218.861 33.4006 218.861 34.0909C218.861 34.7898 218.968 35.4247 219.181 35.9957C219.398 36.5625 219.718 37.0142 220.14 37.3509C220.566 37.6832 221.094 37.8494 221.725 37.8494ZM239.124 39.2045C238.237 39.2045 237.46 38.9936 236.791 38.5717C236.126 38.1499 235.606 37.5597 235.231 36.8011C234.86 36.0426 234.675 35.1562 234.675 34.142C234.675 33.1193 234.86 32.2266 235.231 31.4638C235.606 30.701 236.126 30.1087 236.791 29.6868C237.46 29.2649 238.237 29.054 239.124 29.054C240.01 29.054 240.786 29.2649 241.451 29.6868C242.12 30.1087 242.639 30.701 243.01 31.4638C243.385 32.2266 243.573 33.1193 243.573 34.142C243.573 35.1562 243.385 36.0426 243.01 36.8011C242.639 37.5597 242.12 38.1499 241.451 38.5717C240.786 38.9936 240.01 39.2045 239.124 39.2045ZM239.124 37.8494C239.797 37.8494 240.351 37.6768 240.786 37.3317C241.22 36.9865 241.542 36.5327 241.751 35.9702C241.96 35.4077 242.064 34.7983 242.064 34.142C242.064 33.4858 241.96 32.8743 241.751 32.3075C241.542 31.7408 241.22 31.2827 240.786 30.9332C240.351 30.5838 239.797 30.4091 239.124 30.4091C238.451 30.4091 237.897 30.5838 237.462 30.9332C237.027 31.2827 236.706 31.7408 236.497 32.3075C236.288 32.8743 236.184 33.4858 236.184 34.142C236.184 34.7983 236.288 35.4077 236.497 35.9702C236.706 36.5327 237.027 36.9865 237.462 37.3317C237.897 37.6768 238.451 37.8494 239.124 37.8494ZM247.924 33.0938V39H246.415V29.1818H247.873V30.7159H248.001C248.231 30.2173 248.58 29.8168 249.049 29.5142C249.518 29.2074 250.123 29.054 250.864 29.054C251.529 29.054 252.111 29.1903 252.609 29.4631C253.108 29.7315 253.496 30.1406 253.773 30.6903C254.05 31.2358 254.188 31.9261 254.188 32.7614V39H252.68V32.8636C252.68 32.0923 252.479 31.4915 252.079 31.0611C251.678 30.6264 251.129 30.4091 250.43 30.4091C249.948 30.4091 249.518 30.5135 249.138 30.7223C248.763 30.9311 248.467 31.2358 248.25 31.6364C248.033 32.0369 247.924 32.5227 247.924 33.0938Z" fill="white"/>
<path d="M158.004 70.169C157.803 69.517 157.525 68.9335 157.171 68.4183C156.825 67.8951 156.406 67.4484 155.915 67.0781C155.433 66.7079 154.877 66.4302 154.249 66.245C153.621 66.0518 152.937 65.9553 152.197 65.9553C150.869 65.9553 149.685 66.2893 148.647 66.9574C147.609 67.6255 146.792 68.6075 146.196 69.9034C145.608 71.1913 145.315 72.7609 145.315 74.6122C145.315 76.4796 145.608 78.0613 146.196 79.3572C146.784 80.6532 147.601 81.6392 148.647 82.3153C149.693 82.9834 150.909 83.3175 152.293 83.3175C153.549 83.3175 154.636 83.076 155.553 82.593C156.479 82.1101 157.191 81.4259 157.69 80.5405C158.189 79.647 158.439 78.6006 158.439 77.4013L159.453 77.5582H152.74V74.0568H162.773V77.027C162.773 79.1439 162.323 80.9751 161.421 82.5206C160.52 84.0661 159.28 85.2573 157.702 86.0945C156.125 86.9235 154.314 87.3381 152.269 87.3381C149.991 87.3381 147.991 86.8269 146.268 85.8047C144.554 84.7744 143.214 83.3134 142.248 81.4219C141.29 79.5223 140.811 77.2685 140.811 74.6605C140.811 72.6643 141.093 70.8814 141.656 69.3118C142.228 67.7422 143.025 66.41 144.047 65.3153C145.069 64.2126 146.268 63.3755 147.645 62.804C149.021 62.2244 150.518 61.9347 152.136 61.9347C153.505 61.9347 154.781 62.1359 155.964 62.5384C157.147 62.9328 158.197 63.4962 159.115 64.2287C160.041 64.9612 160.801 65.8305 161.397 66.8366C161.993 67.8428 162.383 68.9536 162.568 70.169H158.004ZM175.001 87.3622C173.19 87.3622 171.621 86.9638 170.292 86.1669C168.964 85.37 167.934 84.2552 167.202 82.8224C166.477 81.3897 166.115 79.7154 166.115 77.7997C166.115 75.884 166.477 74.2057 167.202 72.7649C167.934 71.3241 168.964 70.2053 170.292 69.4084C171.621 68.6115 173.19 68.2131 175.001 68.2131C176.812 68.2131 178.382 68.6115 179.71 69.4084C181.038 70.2053 182.064 71.3241 182.789 72.7649C183.521 74.2057 183.888 75.884 183.888 77.7997C183.888 79.7154 183.521 81.3897 182.789 82.8224C182.064 84.2552 181.038 85.37 179.71 86.1669C178.382 86.9638 176.812 87.3622 175.001 87.3622ZM175.025 83.8608C176.007 83.8608 176.828 83.5911 177.488 83.0518C178.148 82.5045 178.64 81.772 178.961 80.8544C179.291 79.9368 179.456 78.9145 179.456 77.7876C179.456 76.6527 179.291 75.6264 178.961 74.7088C178.64 73.7831 178.148 73.0466 177.488 72.4993C176.828 71.9519 176.007 71.6783 175.025 71.6783C174.019 71.6783 173.182 71.9519 172.514 72.4993C171.854 73.0466 171.359 73.7831 171.029 74.7088C170.707 75.6264 170.546 76.6527 170.546 77.7876C170.546 78.9145 170.707 79.9368 171.029 80.8544C171.359 81.772 171.854 82.5045 172.514 83.0518C173.182 83.5911 174.019 83.8608 175.025 83.8608ZM195.687 87.3622C193.876 87.3622 192.306 86.9638 190.978 86.1669C189.65 85.37 188.62 84.2552 187.887 82.8224C187.163 81.3897 186.8 79.7154 186.8 77.7997C186.8 75.884 187.163 74.2057 187.887 72.7649C188.62 71.3241 189.65 70.2053 190.978 69.4084C192.306 68.6115 193.876 68.2131 195.687 68.2131C197.498 68.2131 199.067 68.6115 200.396 69.4084C201.724 70.2053 202.75 71.3241 203.474 72.7649C204.207 74.2057 204.573 75.884 204.573 77.7997C204.573 79.7154 204.207 81.3897 203.474 82.8224C202.75 84.2552 201.724 85.37 200.396 86.1669C199.067 86.9638 197.498 87.3622 195.687 87.3622ZM195.711 83.8608C196.693 83.8608 197.514 83.5911 198.174 83.0518C198.834 82.5045 199.325 81.772 199.647 80.8544C199.977 79.9368 200.142 78.9145 200.142 77.7876C200.142 76.6527 199.977 75.6264 199.647 74.7088C199.325 73.7831 198.834 73.0466 198.174 72.4993C197.514 71.9519 196.693 71.6783 195.711 71.6783C194.705 71.6783 193.868 71.9519 193.2 72.4993C192.54 73.0466 192.045 73.7831 191.714 74.7088C191.393 75.6264 191.232 76.6527 191.232 77.7876C191.232 78.9145 191.393 79.9368 191.714 80.8544C192.045 81.772 192.54 82.5045 193.2 83.0518C193.868 83.5911 194.705 83.8608 195.711 83.8608ZM216.348 94.3409C214.779 94.3409 213.43 94.1276 212.303 93.701C211.177 93.2824 210.271 92.719 209.587 92.0107C208.903 91.3023 208.428 90.5175 208.162 89.6562L212.098 88.7024C212.275 89.0646 212.533 89.4228 212.871 89.777C213.209 90.1392 213.664 90.437 214.235 90.6705C214.815 90.9119 215.543 91.0327 216.421 91.0327C217.66 91.0327 218.686 90.7308 219.499 90.1271C220.312 89.5315 220.719 88.5495 220.719 87.1811V83.6676H220.502C220.276 84.1184 219.946 84.5812 219.512 85.0561C219.085 85.531 218.517 85.9295 217.809 86.2514C217.109 86.5734 216.227 86.7344 215.165 86.7344C213.74 86.7344 212.448 86.4003 211.289 85.7322C210.138 85.0561 209.221 84.05 208.536 82.7138C207.86 81.3696 207.522 79.6873 207.522 77.6669C207.522 75.6304 207.86 73.9119 208.536 72.5114C209.221 71.1027 210.142 70.0362 211.301 69.3118C212.46 68.5793 213.752 68.2131 215.177 68.2131C216.264 68.2131 217.157 68.3982 217.857 68.7685C218.566 69.1307 219.129 69.5694 219.548 70.0845C219.966 70.5916 220.284 71.0705 220.502 71.5213H220.743V68.4545H225.053V87.3018C225.053 88.8875 224.675 90.1996 223.919 91.2379C223.162 92.2763 222.128 93.053 220.816 93.5682C219.503 94.0833 218.014 94.3409 216.348 94.3409ZM216.384 83.3054C217.31 83.3054 218.099 83.08 218.751 82.6293C219.403 82.1785 219.898 81.5305 220.236 80.6854C220.574 79.8402 220.743 78.826 220.743 77.6428C220.743 76.4756 220.574 75.4534 220.236 74.576C219.906 73.6986 219.415 73.0185 218.763 72.5355C218.119 72.0445 217.326 71.799 216.384 71.799C215.41 71.799 214.597 72.0526 213.945 72.5597C213.294 73.0668 212.802 73.763 212.472 74.6484C212.142 75.5258 211.977 76.5239 211.977 77.6428C211.977 78.7777 212.142 79.7718 212.472 80.625C212.811 81.4702 213.306 82.1302 213.958 82.6051C214.618 83.072 215.427 83.3054 216.384 83.3054ZM233.904 62.2727V87H229.533V62.2727H233.904ZM246.608 87.3622C244.749 87.3622 243.143 86.9759 241.791 86.2031C240.447 85.4223 239.412 84.3196 238.688 82.8949C237.963 81.4621 237.601 79.7758 237.601 77.8359C237.601 75.9283 237.963 74.254 238.688 72.8132C239.42 71.3643 240.443 70.2375 241.755 69.4325C243.067 68.6196 244.608 68.2131 246.379 68.2131C247.522 68.2131 248.6 68.3982 249.615 68.7685C250.637 69.1307 251.538 69.6941 252.319 70.4588C253.108 71.2235 253.728 72.1974 254.179 73.3807C254.629 74.5559 254.855 75.9564 254.855 77.5824V78.9226H239.654V75.9766H250.665C250.657 75.1394 250.476 74.3949 250.122 73.7429C249.768 73.0829 249.273 72.5637 248.637 72.1854C248.009 71.8071 247.276 71.6179 246.439 71.6179C245.546 71.6179 244.761 71.8352 244.085 72.2699C243.409 72.6965 242.882 73.2599 242.503 73.9602C242.133 74.6525 241.944 75.4131 241.936 76.2422V78.8139C241.936 79.8925 242.133 80.8182 242.527 81.5909C242.922 82.3556 243.473 82.9432 244.181 83.3537C244.89 83.7562 245.719 83.9574 246.669 83.9574C247.305 83.9574 247.88 83.8688 248.395 83.6918C248.91 83.5066 249.357 83.237 249.735 82.8828C250.114 82.5286 250.4 82.09 250.593 81.5668L254.674 82.0256C254.416 83.1042 253.925 84.0459 253.201 84.8509C252.484 85.6477 251.567 86.2675 250.448 86.7102C249.329 87.1449 248.049 87.3622 246.608 87.3622ZM267.179 87V62.2727H276.452C278.352 62.2727 279.945 62.6269 281.233 63.3352C282.529 64.0436 283.507 65.0175 284.167 66.2571C284.835 67.4886 285.169 68.8892 285.169 70.4588C285.169 72.0445 284.835 73.4531 284.167 74.6847C283.499 75.9162 282.513 76.8861 281.209 77.5945C279.905 78.2947 278.299 78.6449 276.392 78.6449H270.246V74.9624H275.788C276.899 74.9624 277.808 74.7692 278.517 74.3828C279.225 73.9964 279.748 73.4652 280.086 72.7891C280.432 72.1129 280.605 71.3362 280.605 70.4588C280.605 69.5814 280.432 68.8087 280.086 68.1406C279.748 67.4725 279.221 66.9534 278.504 66.5831C277.796 66.2048 276.883 66.0156 275.764 66.0156H271.659V87H267.179ZM293.238 62.2727V87H288.867V62.2727H293.238ZM303.069 87.3743C301.894 87.3743 300.835 87.165 299.893 86.7464C298.96 86.3198 298.219 85.692 297.672 84.8629C297.132 84.0339 296.863 83.0116 296.863 81.7962C296.863 80.7498 297.056 79.8845 297.442 79.2003C297.829 78.5161 298.356 77.9688 299.024 77.5582C299.692 77.1477 300.445 76.8378 301.282 76.6286C302.127 76.4112 303 76.2543 303.902 76.1577C304.988 76.045 305.87 75.9444 306.546 75.8558C307.222 75.7592 307.713 75.6143 308.019 75.4212C308.333 75.2199 308.49 74.91 308.49 74.4915V74.419C308.49 73.5095 308.22 72.8052 307.681 72.3061C307.142 71.8071 306.365 71.5575 305.351 71.5575C304.28 71.5575 303.431 71.791 302.803 72.2578C302.183 72.7247 301.765 73.276 301.547 73.9119L297.466 73.3324C297.788 72.2055 298.32 71.2637 299.06 70.5071C299.801 69.7424 300.706 69.1709 301.777 68.7926C302.847 68.4062 304.031 68.2131 305.327 68.2131C306.22 68.2131 307.109 68.3177 307.995 68.527C308.88 68.7363 309.689 69.0824 310.422 69.5653C311.154 70.0402 311.742 70.6882 312.184 71.5092C312.635 72.3303 312.861 73.3565 312.861 74.5881V87H308.659V84.4524H308.514C308.248 84.9676 307.874 85.4505 307.391 85.9013C306.916 86.344 306.317 86.7022 305.592 86.9759C304.876 87.2415 304.035 87.3743 303.069 87.3743ZM304.204 84.1626C305.081 84.1626 305.842 83.9896 306.486 83.6435C307.13 83.2893 307.625 82.8224 307.971 82.2429C308.325 81.6634 308.502 81.0315 308.502 80.3473V78.1619C308.365 78.2746 308.132 78.3793 307.802 78.4759C307.48 78.5724 307.117 78.657 306.715 78.7294C306.313 78.8018 305.914 78.8662 305.52 78.9226C305.125 78.9789 304.783 79.0272 304.493 79.0675C303.841 79.156 303.258 79.3009 302.743 79.5021C302.228 79.7034 301.821 79.9851 301.523 80.3473C301.225 80.7015 301.077 81.1603 301.077 81.7237C301.077 82.5286 301.37 83.1364 301.958 83.5469C302.546 83.9574 303.294 84.1626 304.204 84.1626ZM319.308 93.9545C318.712 93.9545 318.161 93.9063 317.654 93.8097C317.155 93.7211 316.756 93.6165 316.459 93.4957L317.473 90.0909C318.109 90.276 318.676 90.3646 319.175 90.3565C319.674 90.3485 320.113 90.1915 320.491 89.8857C320.878 89.5878 321.204 89.0888 321.469 88.3885L321.844 87.3864L315.118 68.4545H319.755L324.029 82.4602H324.222L328.508 68.4545H333.157L325.731 89.2457C325.385 90.2277 324.926 91.0689 324.355 91.7692C323.783 92.4775 323.083 93.0168 322.254 93.3871C321.433 93.7654 320.451 93.9545 319.308 93.9545Z" fill="white"/>
<path d="M84.897 85.7457C81.8277 90.3334 78.5736 94.8101 73.6185 94.8841C68.6634 94.9951 67.0733 91.9613 61.4526 91.9613C55.7948 91.9613 54.0568 94.8101 49.3605 94.9951C44.5163 95.1801 40.8554 90.1114 37.7492 85.6347C31.4259 76.4963 26.5817 59.6624 33.0899 48.3412C36.307 42.7176 42.0757 39.1658 48.3251 39.0548C53.0584 38.9808 57.5698 42.2736 60.4911 42.2736C63.3754 42.2736 68.8483 38.3148 74.5799 38.9068C76.9835 39.0178 83.7136 39.8687 88.0401 46.2323C87.7073 46.4543 80.0158 50.968 80.0897 60.3284C80.2007 71.5016 89.8891 75.2384 90 75.2754C89.8891 75.5344 88.4469 80.603 84.897 85.7457ZM63.7822 26.5496C66.4816 23.4788 70.956 21.148 74.6539 21C75.1346 25.3287 73.3966 29.6944 70.8081 32.8022C68.2566 35.947 64.0411 38.3888 59.8995 38.0559C59.3448 33.8011 61.4156 29.3614 63.7822 26.5496Z" fill="white"/>
</svg>
